<svg width="40" height="33" viewBox="0 0 40 33" fill="none" xmlns="http://www.w3.org/2000/svg">
<path d="M34.898 9.91245C34.7571 9.89179 34.6145 9.87864 34.4717 9.86926C36.0936 13.6069 36.206 17.8271 34.7854 21.6458C34.928 21.6289 35.0689 21.6064 35.2097 21.5801C36.5851 21.3136 37.8212 20.5678 38.6981 19.4753C39.575 18.3828 40.0357 17.0145 39.9983 15.6141C39.9609 14.2138 39.4277 12.8721 38.4937 11.828C37.5598 10.7839 36.2856 10.1051 34.898 9.91245Z" fill="#6C63FF"/>
<path d="M5.52865 9.86926C5.38587 9.87865 5.2432 9.8918 5.10235 9.91245C3.71479 10.1051 2.44061 10.7839 1.50664 11.828C0.572679 12.8721 0.039531 14.2138 0.00211235 15.6142C-0.0353063 17.0145 0.425437 18.3827 1.30231 19.4752C2.17919 20.5677 3.41529 21.3136 4.79059 21.5801C4.93143 21.6064 5.07228 21.6289 5.21496 21.6458C3.79447 17.8271 3.90689 13.6069 5.52865 9.86926Z" fill="#6C63FF"/>
<path d="M34.8977 9.9124C33.3506 6.21695 30.4851 3.22851 26.8579 1.52764C23.2307 -0.173236 19.1007 -0.465088 15.2703 0.708782C11.4399 1.88265 8.18262 4.43843 6.13123 7.87959C4.07983 11.3207 3.3808 15.4016 4.16994 19.3293C4.95908 23.257 7.18005 26.7512 10.4014 29.133C13.6227 31.5148 17.6143 32.6141 21.6009 32.2175C25.5874 31.8208 29.2842 29.9564 31.973 26.9866C34.6618 24.0167 36.1507 20.1534 36.1504 16.1472C36.1496 14.0065 35.7238 11.8873 34.8977 9.9124ZM34.7851 21.6458C33.4114 25.3384 30.7053 28.3831 27.1993 30.1806C23.6934 31.9781 19.6417 32.3982 15.8416 31.3583C12.0414 30.3183 8.7682 27.8937 6.66607 24.5615C4.56394 21.2293 3.78517 17.231 4.48308 13.3534C5.18099 9.47588 7.30502 6 10.4371 3.6099C13.5692 1.2198 17.4824 0.0886129 21.4067 0.438971C25.3309 0.78933 28.9819 2.59586 31.641 5.503C34.3001 8.41013 35.7748 12.2073 35.7748 16.1472C35.7742 18.0243 35.439 19.8862 34.7851 21.6458Z" fill="#6C63FF"/>
<path d="M28.2624 12.4852H11.7366C10.865 12.4852 10.0291 12.8315 9.41275 13.4478C8.79643 14.0641 8.4502 14.9 8.4502 15.7716C8.4502 16.6432 8.79643 17.4791 9.41275 18.0954C10.0291 18.7118 10.865 19.058 11.7366 19.058H28.2624C29.134 19.058 29.9699 18.7118 30.5863 18.0954C31.2026 17.4791 31.5488 16.6432 31.5488 15.7716C31.5488 14.9 31.2026 14.0641 30.5863 13.4478C29.9699 12.8315 29.134 12.4852 28.2624 12.4852Z" fill="#33CC99"/>
</svg>
