<svg width="932" height="1052" viewBox="0 0 932 1052" fill="none" xmlns="http://www.w3.org/2000/svg">
<path d="M63.0577 612.253C14.162 581.86 16.3258 509.988 66.9615 482.592L933.037 13.9997L933.036 584.999L537.568 799.973C480.681 830.897 411.568 828.884 356.577 794.702L63.0577 612.253Z" fill="url(#paint0_linear_748_4)"/>
<path d="M933.016 291.324L933.016 585L754.038 682L776.554 378.544L933.016 291.324Z" fill="#635BEA"/>
<path fill-rule="evenodd" clip-rule="evenodd" d="M464.955 267.42L451.157 522.007C450.488 534.347 457.082 546.058 467.853 551.658L715.042 680.194L741.974 377.583L496.64 250.279L464.955 267.42Z" fill="url(#paint1_linear_748_4)"/>
<path fill-rule="evenodd" clip-rule="evenodd" d="M533.205 230.758L760.445 346.768L933.044 244.489L933.044 13.9996L736.502 120.5L736.405 120.454L533.205 230.758Z" fill="#625AE9"/>
<path d="M154.5 722V754.985C154.5 762.615 162.7 767.434 169.365 763.722L282 701M480 686.5L435.41 719.073C419.622 730.606 398.561 731.879 381.5 722.331L343.853 701.265C324.659 690.524 301.286 690.424 282 701V701M282 701V701C296.21 692.474 297.084 672.201 283.662 662.483L216.437 613.814C209.494 608.787 210.148 598.244 217.658 594.113L271.5 564.5" stroke="#33CC99" stroke-width="1.5"/>
<path d="M65 496.054C65 492.12 69.3335 489.727 72.6631 491.822L267.646 614.529C269.101 615.444 269.983 617.043 269.983 618.761V785.946C269.983 789.88 265.65 792.273 262.32 790.177L67.3369 667.47C65.8825 666.555 65 664.957 65 663.239L65 496.054Z" fill="#3F3D56"/>
<path d="M65 496.054C65 492.12 69.3335 489.727 72.6631 491.822L267.646 614.529C269.101 615.444 269.983 617.043 269.983 618.761V626.946C269.983 630.88 265.65 633.273 262.32 631.177L67.3369 508.47C65.8825 507.555 65 505.957 65 504.239L65 496.054Z" fill="#2F2E41"/>
<ellipse cx="84.9834" cy="510" rx="2" ry="3" fill="#33CC99"/>
<ellipse cx="78.9834" cy="506.5" rx="2" ry="3" fill="#33CC99"/>
<ellipse cx="72.9834" cy="503" rx="2" ry="3" fill="#33CC99"/>
<path d="M299 415.5L372.596 375.397C378.743 372.047 386.195 372.155 392.243 375.683L435.662 401.011C451.04 409.981 470.028 410.098 485.515 401.318L513.864 385.246C520.128 381.695 524 375.049 524 367.848V337.724C524 323.012 539.349 313.335 552.623 319.678L580.5 333" stroke="#33CC99" stroke-width="1.5"/>
<path d="M517.822 581.23L622 624.393L517.822 674.857L414 624.342L517.822 581.23Z" fill="#2F2E41"/>
<path d="M517.822 523.861L622 567.025L517.822 617.489L414 566.974L517.822 523.861Z" fill="#2F2E41"/>
<path d="M517.822 467L622 510.164L517.822 560.627L414 510.112L517.822 467Z" fill="#2F2E41"/>
<path d="M517.924 617.022L414 566.253L414 618.291L517.924 667.791V617.022Z" fill="#3F3D56"/>
<path d="M517.924 643.97L414 593.833L414 600.776L517.924 650.694L517.924 643.97Z" fill="#6C63FF"/>
<path d="M500.082 614.263C500.082 616.105 498.769 617.597 497.149 617.597C495.528 617.597 494.215 616.105 494.215 614.263C494.215 612.422 495.528 610.93 497.149 610.93C498.769 610.93 500.082 612.422 500.082 614.263Z" fill="#33CC99"/>
<path d="M507.19 617.31C507.19 619.151 505.877 620.643 504.256 620.643C502.636 620.643 501.322 619.151 501.322 617.31C501.322 615.468 502.636 613.976 504.256 613.976C505.877 613.976 507.19 615.468 507.19 617.31Z" fill="#33CC99"/>
<path d="M514.976 620.525C514.976 622.366 513.663 623.858 512.043 623.858C510.422 623.858 509.109 622.366 509.109 620.525C509.109 618.683 510.422 617.191 512.043 617.191C513.663 617.191 514.976 618.683 514.976 620.525Z" fill="#33CC99"/>
<path d="M517.924 674.391L414 623.622L414 675.66L517.924 725.159V674.391Z" fill="#3F3D56"/>
<path d="M517.924 701.339L414 651.202L414 658.145L517.924 708.063L517.924 701.339Z" fill="#6C63FF"/>
<path d="M500.082 672.14C500.082 673.981 498.769 675.474 497.149 675.474C495.528 675.474 494.215 673.981 494.215 672.14C494.215 670.299 495.528 668.806 497.149 668.806C498.769 668.806 500.082 670.299 500.082 672.14Z" fill="#33CC99"/>
<path d="M507.19 675.186C507.19 677.027 505.877 678.52 504.256 678.52C502.636 678.52 501.322 677.027 501.322 675.186C501.322 673.345 502.636 671.852 504.256 671.852C505.877 671.852 507.19 673.345 507.19 675.186Z" fill="#33CC99"/>
<path d="M514.976 678.401C514.976 680.242 513.663 681.735 512.043 681.735C510.422 681.735 509.109 680.242 509.109 678.401C509.109 676.56 510.422 675.067 512.043 675.067C513.663 675.067 514.976 676.56 514.976 678.401Z" fill="#33CC99"/>
<path d="M517.924 560.668L414 509.9L414 561.938L517.924 611.437V560.668Z" fill="#3F3D56"/>
<path d="M517.924 587.616L414 537.48L414 544.422L517.924 594.341L517.924 587.616Z" fill="#6C63FF"/>
<path d="M500.082 558.925C500.082 560.767 498.769 562.259 497.149 562.259C495.528 562.259 494.215 560.767 494.215 558.925C494.215 557.084 495.528 555.591 497.149 555.591C498.769 555.591 500.082 557.084 500.082 558.925Z" fill="#33CC99"/>
<path d="M507.19 561.971C507.19 563.813 505.877 565.305 504.256 565.305C502.636 565.305 501.322 563.813 501.322 561.971C501.322 560.13 502.636 558.638 504.256 558.638C505.877 558.638 507.19 560.13 507.19 561.971Z" fill="#33CC99"/>
<path d="M514.976 565.187C514.976 567.028 513.663 568.52 512.043 568.52C510.422 568.52 509.109 567.028 509.109 565.187C509.109 563.345 510.422 561.853 512.043 561.853C513.663 561.853 514.976 563.345 514.976 565.187Z" fill="#33CC99"/>
<path d="M621.998 623.876L517.923 674.391L517.82 725.159L621.998 674.644V623.876Z" fill="#3F3D56"/>
<path d="M621.999 649.514L517.82 701.298L517.822 708.152L621.999 656.622L621.999 649.514Z" fill="#6C63FF"/>
<path d="M621.998 566.507L517.923 617.022L517.82 667.791L621.998 617.276V566.507Z" fill="#3F3D56"/>
<path d="M621.999 592.145L517.82 643.929L517.822 650.783L621.999 599.253L621.999 592.145Z" fill="#6C63FF"/>
<path d="M621.998 510.153L517.82 560.617V611.437L621.998 560.922V510.153Z" fill="#3F3D56"/>
<path d="M621.999 535.792L517.82 587.576L517.822 594.43L621.999 542.899L621.999 535.792Z" fill="#6C63FF"/>
<path d="M301.822 462.23L406 505.393L301.822 555.857L198 505.342L301.822 462.23Z" fill="#2F2E41"/>
<path d="M301.822 404.861L406 448.025L301.822 498.489L198 447.974L301.822 404.861Z" fill="#2F2E41"/>
<path d="M301.822 348L406 391.164L301.822 441.627L198 391.112L301.822 348Z" fill="#2F2E41"/>
<path d="M301.924 498.022L198 447.253L198 499.291L301.924 548.791V498.022Z" fill="#3F3D56"/>
<path d="M301.924 524.97L198 474.833L198 481.776L301.924 531.694L301.924 524.97Z" fill="#6C63FF"/>
<path d="M284.082 495.263C284.082 497.105 282.769 498.597 281.149 498.597C279.528 498.597 278.215 497.105 278.215 495.263C278.215 493.422 279.528 491.93 281.149 491.93C282.769 491.93 284.082 493.422 284.082 495.263Z" fill="#33CC99"/>
<path d="M291.19 498.31C291.19 500.151 289.877 501.643 288.256 501.643C286.636 501.643 285.322 500.151 285.322 498.31C285.322 496.468 286.636 494.976 288.256 494.976C289.877 494.976 291.19 496.468 291.19 498.31Z" fill="#33CC99"/>
<path d="M298.976 501.525C298.976 503.366 297.663 504.858 296.043 504.858C294.422 504.858 293.109 503.366 293.109 501.525C293.109 499.683 294.422 498.191 296.043 498.191C297.663 498.191 298.976 499.683 298.976 501.525Z" fill="#33CC99"/>
<path d="M301.924 555.391L198 504.622L198 556.66L301.924 606.159V555.391Z" fill="#3F3D56"/>
<path d="M301.924 582.339L198 532.202L198 539.145L301.924 589.063L301.924 582.339Z" fill="#6C63FF"/>
<path d="M284.082 553.14C284.082 554.981 282.769 556.474 281.149 556.474C279.528 556.474 278.215 554.981 278.215 553.14C278.215 551.299 279.528 549.806 281.149 549.806C282.769 549.806 284.082 551.299 284.082 553.14Z" fill="#33CC99"/>
<path d="M291.19 556.186C291.19 558.027 289.877 559.52 288.256 559.52C286.636 559.52 285.322 558.027 285.322 556.186C285.322 554.345 286.636 552.852 288.256 552.852C289.877 552.852 291.19 554.345 291.19 556.186Z" fill="#33CC99"/>
<path d="M298.976 559.401C298.976 561.242 297.663 562.735 296.043 562.735C294.422 562.735 293.109 561.242 293.109 559.401C293.109 557.56 294.422 556.067 296.043 556.067C297.663 556.067 298.976 557.56 298.976 559.401Z" fill="#33CC99"/>
<path d="M301.924 441.668L198 390.9L198 442.938L301.924 492.437V441.668Z" fill="#3F3D56"/>
<path d="M301.924 468.616L198 418.48L198 425.422L301.924 475.341L301.924 468.616Z" fill="#6C63FF"/>
<path d="M284.082 439.925C284.082 441.767 282.769 443.259 281.149 443.259C279.528 443.259 278.215 441.767 278.215 439.925C278.215 438.084 279.528 436.592 281.149 436.592C282.769 436.592 284.082 438.084 284.082 439.925Z" fill="#33CC99"/>
<path d="M291.19 442.971C291.19 444.813 289.877 446.305 288.256 446.305C286.636 446.305 285.322 444.813 285.322 442.971C285.322 441.13 286.636 439.638 288.256 439.638C289.877 439.638 291.19 441.13 291.19 442.971Z" fill="#33CC99"/>
<path d="M298.976 446.187C298.976 448.028 297.663 449.52 296.043 449.52C294.422 449.52 293.109 448.028 293.109 446.187C293.109 444.345 294.422 442.853 296.043 442.853C297.663 442.853 298.976 444.345 298.976 446.187Z" fill="#33CC99"/>
<path d="M405.998 504.876L301.923 555.391L301.82 606.159L405.998 555.644V504.876Z" fill="#3F3D56"/>
<path d="M405.999 530.514L301.82 582.298L301.822 589.152L405.999 537.622L405.999 530.514Z" fill="#6C63FF"/>
<path d="M405.998 447.507L301.923 498.022L301.82 548.791L405.998 498.276V447.507Z" fill="#3F3D56"/>
<path d="M405.999 473.145L301.82 524.929L301.822 531.783L405.999 480.253L405.999 473.145Z" fill="#6C63FF"/>
<path d="M405.998 391.153L301.82 441.617V492.437L405.998 441.922V391.153Z" fill="#3F3D56"/>
<path d="M405.999 416.792L301.82 468.576L301.822 475.43L405.999 423.899L405.999 416.792Z" fill="#6C63FF"/>
<ellipse cx="610" cy="440" rx="77" ry="46" fill="#33B68A"/>
<path d="M527 296H693L687 440H533L527 296Z" fill="#33B68A"/>
<ellipse cx="610" cy="296" rx="83" ry="47" fill="#33CC99"/>
<path fill-rule="evenodd" clip-rule="evenodd" d="M687.928 411C686.152 435.477 651.942 455 610 455C568.058 455 533.848 435.477 532.072 411C532.024 411.663 532 412.33 532 413C532 438.405 566.922 459 610 459C653.078 459 688 438.405 688 413C688 412.33 687.976 411.663 687.928 411Z" fill="#107D59"/>
<path fill-rule="evenodd" clip-rule="evenodd" d="M689.926 376C688.105 400.477 653.017 420 610 420C566.983 420 531.895 400.477 530.074 376C530.025 376.663 530 377.33 530 378C530 403.405 565.817 424 610 424C654.183 424 690 403.405 690 378C690 377.33 689.975 376.663 689.926 376Z" fill="#107D59"/>
<path fill-rule="evenodd" clip-rule="evenodd" d="M691.525 335C689.664 359.477 653.809 379 609.851 379C565.892 379 530.037 359.477 528.176 335C528.126 335.663 528.101 336.33 528.101 337C528.101 362.405 564.701 383 609.851 383C655 383 691.601 362.405 691.601 337C691.601 336.33 691.575 335.663 691.525 335Z" fill="#107D59"/>
<path d="M610.736 262.718L598.124 256L601.945 266.852L588.951 273.054L606.914 276.154L612.647 288.557L616.851 277.188L631.756 274.604L620.29 268.403L623.348 257.033L610.736 262.718Z" fill="#6C63FF"/>
<ellipse cx="570.5" cy="294.5" rx="22.5" ry="12.5" fill="#6C63FF"/>
<path d="M653.54 277.705L678 292.691L649.718 308.194L624.494 293.725L653.54 277.705Z" fill="#6C63FF"/>
<path d="M624.112 307.678L611.118 333L582.454 316.463L624.112 307.678Z" fill="#6C63FF"/>
<path d="M678 292.7L653.55 277.7L649.7 308.2L678 292.7Z" fill="#564FCC"/>
<path d="M673.5 372.5L717 398.75C725.999 404.18 731.5 413.925 731.5 424.435V476.671C731.5 483.967 727.528 490.684 721.134 494.198L675.758 519.142C662.401 526.484 661.838 545.472 674.736 553.593L738.397 593.676C751.378 601.849 750.705 620.992 737.181 628.232L631.889 684.604C619.72 691.119 605 682.303 605 668.5V668.5M597.5 551.5V551.5C601.38 550.724 605 553.692 605 557.648V614M605 614L604.677 612.949C603.742 609.911 600.566 608.164 597.5 609V609M605 614V668.5M605 668.5V668.5C604.512 665.33 601.034 663.597 598.21 665.118L597.5 665.5" stroke="#33CC99"/>
<defs>
<linearGradient id="paint0_linear_748_4" x1="-207.996" y1="674.241" x2="1198.6" y2="188.646" gradientUnits="userSpaceOnUse">
<stop stop-color="#564FCC"/>
<stop offset="0.845" stop-color="#6C63FF"/>
</linearGradient>
<linearGradient id="paint1_linear_748_4" x1="706.499" y1="403" x2="57.999" y2="656" gradientUnits="userSpaceOnUse">
<stop offset="0.325" stop-color="#625AE9"/>
<stop offset="1" stop-color="#625AE9" stop-opacity="0"/>
</linearGradient>
</defs>
</svg>
