<svg width="33" height="40" viewBox="0 0 33 40" fill="none" xmlns="http://www.w3.org/2000/svg">
<g clip-path="url(#clip0_206_300)">
<path fill-rule="evenodd" clip-rule="evenodd" d="M0.921376 40H31.5111C31.7553 39.9997 31.9895 39.8961 32.1623 39.7118C32.335 39.5276 32.4321 39.2778 32.4324 39.0172V28.0098C32.4321 27.7493 32.335 27.4995 32.1623 27.3152C31.9895 27.131 31.7553 27.0273 31.5111 27.027H0.921376C0.677099 27.0273 0.442912 27.131 0.270182 27.3152C0.0974517 27.4995 0.000283356 27.7493 0 28.0098V39.0172C0.00028287 39.2778 0.0974516 39.5276 0.270182 39.7118C0.442912 39.8961 0.677099 39.9997 0.921376 40ZM1.94103 38.9189H30.4914C30.7194 38.9187 30.938 38.8323 31.0992 38.6788C31.2604 38.5252 31.3511 38.3171 31.3513 38.0999V28.9271C31.3511 28.71 31.2604 28.5018 31.0992 28.3483C30.938 28.1947 30.7194 28.1084 30.4914 28.1081H1.94103C1.71304 28.1084 1.49447 28.1947 1.33325 28.3483C1.17204 28.5018 1.08135 28.71 1.08108 28.9271V38.0999C1.08135 38.3171 1.17204 38.5252 1.33325 38.6788C1.49447 38.8323 1.71304 38.9187 1.94103 38.9189Z" fill="#6C63FF"/>
<path d="M12.8142 30.4146H4.70605V31.3501H12.8142V30.4146Z" fill="#6C63FF"/>
<path d="M23.503 31.5372C23.8083 31.5372 24.0558 31.2859 24.0558 30.9759C24.0558 30.6659 23.8083 30.4146 23.503 30.4146C23.1977 30.4146 22.9502 30.6659 22.9502 30.9759C22.9502 31.2859 23.1977 31.5372 23.503 31.5372Z" fill="#33CC99"/>
<path d="M25.3448 31.5372C25.6501 31.5372 25.8976 31.2859 25.8976 30.9759C25.8976 30.6659 25.6501 30.4146 25.3448 30.4146C25.0395 30.4146 24.792 30.6659 24.792 30.9759C24.792 31.2859 25.0395 31.5372 25.3448 31.5372Z" fill="#33CC99"/>
<path d="M27.1886 31.5372C27.4939 31.5372 27.7414 31.2859 27.7414 30.9759C27.7414 30.6659 27.4939 30.4146 27.1886 30.4146C26.8833 30.4146 26.6357 30.6659 26.6357 30.9759C26.6357 31.2859 26.8833 31.5372 27.1886 31.5372Z" fill="#33CC99"/>
<path fill-rule="evenodd" clip-rule="evenodd" d="M0.921376 25.9459H31.5111C31.7553 25.9456 31.9895 25.842 32.1623 25.6578C32.335 25.4735 32.4321 25.2237 32.4324 24.9631V13.9558C32.4321 13.6952 32.335 13.4454 32.1623 13.2611C31.9895 13.0769 31.7553 12.9733 31.5111 12.973H0.921376C0.677099 12.9733 0.442912 13.0769 0.270182 13.2612C0.0974517 13.4454 0.000283356 13.6952 0 13.9558V24.9631C0.00028287 25.2237 0.0974516 25.4735 0.270182 25.6577C0.442912 25.842 0.677099 25.9456 0.921376 25.9459ZM1.94103 25.1578H30.4914C30.7194 25.1575 30.938 25.069 31.0992 24.9117C31.2604 24.7544 31.3511 24.5411 31.3513 24.3186V14.9198C31.3511 14.6974 31.2604 14.4841 31.0992 14.3267C30.938 14.1694 30.7194 14.0809 30.4914 14.0807H1.94103C1.71304 14.0809 1.49447 14.1694 1.33325 14.3267C1.17204 14.4841 1.08135 14.6974 1.08108 14.9198V24.3186C1.08135 24.5411 1.17204 24.7544 1.33325 24.9117C1.49447 25.069 1.71304 25.1575 1.94103 25.1578Z" fill="#6C63FF"/>
<path d="M12.8142 15.8765H4.70605V16.8593H12.8142V15.8765Z" fill="#6C63FF"/>
<path d="M23.503 17.0558C23.8083 17.0558 24.0558 16.7918 24.0558 16.4661C24.0558 16.1405 23.8083 15.8765 23.503 15.8765C23.1977 15.8765 22.9502 16.1405 22.9502 16.4661C22.9502 16.7918 23.1977 17.0558 23.503 17.0558Z" fill="#33CC99"/>
<path d="M25.3448 17.0558C25.6501 17.0558 25.8976 16.7918 25.8976 16.4661C25.8976 16.1405 25.6501 15.8765 25.3448 15.8765C25.0395 15.8765 24.792 16.1405 24.792 16.4661C24.792 16.7918 25.0395 17.0558 25.3448 17.0558Z" fill="#33CC99"/>
<path d="M27.1886 17.0558C27.4939 17.0558 27.7414 16.7918 27.7414 16.4661C27.7414 16.1405 27.4939 15.8765 27.1886 15.8765C26.8833 15.8765 26.6357 16.1405 26.6357 16.4661C26.6357 16.7918 26.8833 17.0558 27.1886 17.0558Z" fill="#33CC99"/>
<path fill-rule="evenodd" clip-rule="evenodd" d="M0.921376 11.8919H31.5111C31.7553 11.8916 31.9895 11.7966 32.1623 11.6277C32.335 11.4588 32.4321 11.2298 32.4324 10.991V0.900901C32.4321 0.662051 32.335 0.433065 32.1623 0.264172C31.9895 0.0952798 31.7553 0.000273253 31.5111 0H0.921376C0.677099 0.00027706 0.442912 0.0952861 0.270182 0.264178C0.0974517 0.433069 0.000283356 0.662052 0 0.900901V10.991C0.00028287 11.2298 0.0974516 11.4588 0.270182 11.6277C0.442912 11.7966 0.677099 11.8916 0.921376 11.8919ZM1.94103 10.8108H30.4914C30.7194 10.8106 30.938 10.7329 31.0992 10.5947C31.2604 10.4565 31.3511 10.2691 31.3513 10.0737V1.81818C31.3511 1.62276 31.2604 1.43541 31.0992 1.29722C30.938 1.15904 30.7194 1.0813 30.4914 1.08108H1.94103C1.71304 1.08131 1.49447 1.15904 1.33325 1.29723C1.17204 1.43541 1.08135 1.62276 1.08108 1.81818V10.0737C1.08135 10.2691 1.17204 10.4565 1.33325 10.5947C1.49447 10.7329 1.71304 10.8106 1.94103 10.8108Z" fill="#6C63FF"/>
<path d="M12.8142 2.76385H4.70605V3.69941H12.8142V2.76385Z" fill="#6C63FF"/>
<path d="M23.503 3.88652C23.8083 3.88652 24.0558 3.6352 24.0558 3.32519C24.0558 3.01517 23.8083 2.76385 23.503 2.76385C23.1977 2.76385 22.9502 3.01517 22.9502 3.32519C22.9502 3.6352 23.1977 3.88652 23.503 3.88652Z" fill="#33CC99"/>
<path d="M25.3448 3.88652C25.6501 3.88652 25.8976 3.6352 25.8976 3.32519C25.8976 3.01517 25.6501 2.76385 25.3448 2.76385C25.0395 2.76385 24.792 3.01517 24.792 3.32519C24.792 3.6352 25.0395 3.88652 25.3448 3.88652Z" fill="#33CC99"/>
<path d="M27.1886 3.88652C27.4939 3.88652 27.7414 3.6352 27.7414 3.32519C27.7414 3.01517 27.4939 2.76385 27.1886 2.76385C26.8833 2.76385 26.6357 3.01517 26.6357 3.32519C26.6357 3.6352 26.8833 3.88652 27.1886 3.88652Z" fill="#33CC99"/>
</g>
<defs>
<clipPath id="clip0_206_300">
<rect width="32.4324" height="40" fill="white"/>
</clipPath>
</defs>
</svg>
