<svg width="20" height="20" viewBox="0 0 20 20" fill="none" xmlns="http://www.w3.org/2000/svg">
<path d="M15.4919 4.9083C14.4669 4.4333 13.3753 4.0833 12.2253 3.8833C12.0836 4.1333 11.9169 4.47497 11.8086 4.74997C10.5919 4.56663 9.38358 4.56663 8.19193 4.74997C8.07526 4.47497 7.90859 4.1333 7.76693 3.8833C6.61693 4.0833 5.52526 4.4333 4.50026 4.9083C2.43359 8.02497 1.87526 11.0667 2.15026 14.0583C3.52526 15.0833 4.85026 15.7 6.15859 16.1083C6.48359 15.6667 6.76693 15.1917 7.01693 14.7C6.54193 14.525 6.09193 14.3 5.66693 14.0417C5.78359 13.9583 5.89193 13.8667 6.00026 13.7833C8.60858 15 11.4336 15 14.0086 13.7833C14.1169 13.875 14.2253 13.9583 14.3419 14.0417C13.9169 14.3 13.4586 14.5167 12.9919 14.7C13.2419 15.1917 13.5253 15.6667 13.8503 16.1083C15.1586 15.7 16.4919 15.0833 17.8586 14.0583C18.1836 10.5833 17.3003 7.57497 15.5086 4.9083H15.4919ZM7.36693 12.225C6.58359 12.225 5.94193 11.5 5.94193 10.6083C5.94193 9.71666 6.56693 8.99166 7.36693 8.99166C8.16693 8.99166 8.80025 9.71666 8.79192 10.6083C8.79192 11.4917 8.16693 12.225 7.36693 12.225ZM12.6253 12.225C11.8419 12.225 11.2003 11.5 11.2003 10.6083C11.2003 9.71666 11.8253 8.99166 12.6253 8.99166C13.4253 8.99166 14.0586 9.71666 14.0503 10.6083C14.0503 11.4917 13.4253 12.225 12.6253 12.225Z" fill="#3F3D56"/>
</svg>
