<svg width="20" height="20" viewBox="0 0 20 20" fill="none" xmlns="http://www.w3.org/2000/svg">
<g clip-path="url(#clip0_186_127)">
<path fill-rule="evenodd" clip-rule="evenodd" d="M16.6663 0.833374C18.0471 0.833374 19.1663 1.95267 19.1663 3.33337V16.6667C19.1663 18.0475 18.0471 19.1667 16.6663 19.1667H3.33301C1.9523 19.1667 0.833008 18.0475 0.833008 16.6667V3.33337C0.833008 1.95267 1.9523 0.833374 3.33301 0.833374H16.6663ZM16.6663 2.50004C17.1266 2.50004 17.4997 2.87314 17.4997 3.33337V16.6667C17.4997 17.127 17.1266 17.5 16.6663 17.5H12.4997V11.6666H14.2298C14.5885 11.6666 14.9069 11.4371 15.0204 11.0968L15.3896 9.98929C15.5245 9.58454 15.2233 9.16662 14.7967 9.16662H12.4997V7.49997C12.4997 7.08331 12.9163 6.66664 13.333 6.66664H14.9997C15.4599 6.66664 15.833 6.29354 15.833 5.83331V5.26165C15.833 4.99247 15.6611 4.75112 15.4008 4.68243C14.3084 4.39417 13.333 4.39417 13.333 4.39417C11.2497 4.39417 9.99967 5.83331 9.99967 7.08331V9.16662H8.33301C7.87277 9.16662 7.49967 9.53971 7.49967 9.99996V10.8333C7.49967 11.2935 7.87277 11.6666 8.33301 11.6666H9.99967V17.5H3.33301C2.87277 17.5 2.49967 17.127 2.49967 16.6667V3.33337C2.49967 2.87314 2.87277 2.50004 3.33301 2.50004H16.6663Z" fill="#3F3D56"/>
</g>
<defs>
<clipPath id="clip0_186_127">
<rect width="20" height="20" fill="white"/>
</clipPath>
</defs>
</svg>
