<svg width="70" height="27" viewBox="0 0 70 27" fill="none" xmlns="http://www.w3.org/2000/svg">
<path fill-rule="evenodd" clip-rule="evenodd" d="M1.98864 26.25H68.0114C68.5386 26.2494 69.0441 26.0397 69.4169 25.6669C69.7897 25.2941 69.9994 24.7886 70 24.2614V1.98864C69.9994 1.4614 69.7897 0.955941 69.4169 0.58313C69.0441 0.210319 68.5386 0.000603174 68.0114 0H1.98864C1.46141 0.000611578 0.955952 0.210333 0.583142 0.583142C0.210333 0.955952 0.000611578 1.46141 0 1.98864V24.2614C0.000610527 24.7886 0.210333 25.2941 0.583142 25.6669C0.955952 26.0397 1.4614 26.2494 1.98864 26.25ZM2.93182 25H67.0682C67.5804 24.9994 68.0714 24.8077 68.4335 24.4669C68.7957 24.126 68.9994 23.6639 69 23.1818V2.81818C68.9994 2.33614 68.7957 1.874 68.4335 1.53315C68.0714 1.19229 67.5804 1.00055 67.0682 1H2.93182C2.41965 1.00056 1.92864 1.1923 1.56648 1.53316C1.20432 1.87401 1.00059 2.33614 1 2.81818V23.1818C1.00059 23.6639 1.20432 24.126 1.56648 24.4669C1.92864 24.8077 2.41965 24.9994 2.93182 25Z" fill="#6C63FF"/>
<path d="M27.8418 5.96588H10.3418V7.95452H27.8418V5.96588Z" fill="#6C63FF"/>
<path d="M50.91 8.35225C51.569 8.35225 52.1032 7.81804 52.1032 7.15906C52.1032 6.50009 51.569 5.96588 50.91 5.96588C50.251 5.96588 49.7168 6.50009 49.7168 7.15906C49.7168 7.81804 50.251 8.35225 50.91 8.35225Z" fill="#33CC99"/>
<path d="M54.8865 8.35225C55.5455 8.35225 56.0797 7.81804 56.0797 7.15906C56.0797 6.50009 55.5455 5.96588 54.8865 5.96588C54.2276 5.96588 53.6934 6.50009 53.6934 7.15906C53.6934 7.81804 54.2276 8.35225 54.8865 8.35225Z" fill="#33CC99"/>
<path d="M58.8641 8.35225C59.5231 8.35225 60.0573 7.81804 60.0573 7.15906C60.0573 6.50009 59.5231 5.96588 58.8641 5.96588C58.2051 5.96588 57.6709 6.50009 57.6709 7.15906C57.6709 7.81804 58.2051 8.35225 58.8641 8.35225Z" fill="#33CC99"/>
</svg>
