<svg width="216" height="600" viewBox="0 0 216 600" fill="none" xmlns="http://www.w3.org/2000/svg">
<path d="M0 0.871582C125.469 42.3748 216 160.615 216 300C216 439.384 125.469 557.624 0 599.127V0.871582Z" fill="#6C63FF"/>
<path d="M60.9678 75V158.562H184V165.771H60.9678V307.098H184V314.308H175.742C160.67 314.308 145.745 317.224 131.82 322.89C117.895 328.555 105.242 336.859 94.584 347.328C83.9262 357.797 75.4721 370.225 69.7041 383.903C63.9362 397.581 60.9678 412.242 60.9678 427.047H184V434.229H60.9678V529H53.6553V434.229H0V427.047H53.6553V314.308H0V307.098H53.6553V165.771C35.0688 165.772 16.8612 169.378 0 176.192V158.562H53.6553V75H60.9678Z" fill="#564FCC"/>
<path fill-rule="evenodd" clip-rule="evenodd" d="M39.6729 157.231C49.7734 153.979 60.5354 161.09 64.3604 171.428C68.2036 181.77 66.0571 194.217 60.9463 204.427C56.5763 213.168 50.2408 220.548 43.5176 227.376C43.8008 228.166 44.1085 228.941 44.3916 229.731C49.5537 244.237 53.3793 259.344 55.8125 274.834C58.5306 258.97 64.6082 243.833 73.5459 230.668C82.2804 218.509 94.8301 209.69 106.336 200.261C120.156 188.936 138.932 200.666 135.815 218.963C135.785 219.14 135.755 219.317 135.724 219.494C134.278 219.933 132.845 220.427 131.425 220.975C129.638 221.674 128.056 222.94 126.886 224.604C125.715 226.27 125.011 228.257 124.865 230.306C124.72 232.355 125.139 234.37 126.069 236.087C126.999 237.804 128.397 239.144 130.078 239.93L130.25 240.01C128.454 244.847 126.333 249.548 123.905 254.071C117.01 266.667 107.896 277.705 97.1338 286.492C86.3714 295.28 74.1929 301.628 61.3623 305.139C60.5239 305.355 59.7038 305.576 58.8711 305.771C59.715 327.185 58.0099 348.784 53.7988 370.023C51.279 382.545 47.8519 394.878 43.5498 406.901L43.7246 406.481C49.8406 393.476 59.7445 382.94 71.7646 376.654C89.5653 367.51 110.988 368.211 129.211 361.932C137.983 358.909 145.67 368.02 141.766 377.224C141.703 377.37 141.641 377.517 141.578 377.664C139.005 378.077 136.448 378.665 133.924 379.424C132.478 379.863 131.045 380.356 129.625 380.904C127.839 381.604 126.256 382.869 125.086 384.534C123.915 386.199 123.211 388.186 123.065 390.235C122.92 392.284 123.339 394.299 124.27 396.017C125.2 397.734 126.597 399.073 128.278 399.859L128.45 399.939C128.574 399.996 128.681 400.047 128.805 400.104C122.044 409.447 113.932 417.532 104.824 424.001C93.6293 431.785 81.2291 437.061 68.3848 439.504C55.5404 441.947 42.5219 441.507 30.1279 438.21L30.1094 438.205C22.2993 453.559 13.1006 468.067 2.66113 481.495L0 480.767V477.267C20.6846 450.444 36.1193 419.365 45.2559 386.135C47.5418 377.79 49.4068 369.337 50.8438 360.815C52.0162 353.828 52.9093 346.816 53.5225 339.779C56.8113 301.59 51.8356 263.591 39.0039 228.903C30.6259 220.037 25.0702 208.408 23.0859 195.583C22.3584 190.969 22.2495 186.227 22.7627 181.503C23.8511 181.979 24.9757 182.398 26.0869 182.791C26.4342 182.908 26.8002 183.03 27.1475 183.147L27.2793 183.191C28.5084 183.595 29.8377 183.592 31.1064 183.184C32.3751 182.775 33.5294 181.979 34.4307 180.891C35.3321 179.802 35.9419 178.468 36.1865 177.048C36.4311 175.628 36.3011 174.184 35.8105 172.889C35.5049 172.083 35.1981 171.278 34.8916 170.473C34.4316 169.233 33.9472 168.008 33.4873 166.769C33.4284 166.647 33.3765 166.52 33.3311 166.391C32.7992 164.975 32.2613 163.58 31.7295 162.165C34.0294 159.891 36.7481 158.202 39.6729 157.231ZM40.1992 415.788C39.6407 417.172 39.1006 418.562 38.5234 419.941L38.5527 419.905L39.3057 418.908C39.5082 418.095 39.7291 417.286 39.9746 416.462C40.0371 416.234 40.1368 416.016 40.1992 415.788ZM58.6504 301.322L58.6621 301.28L58.6455 301.232L58.6504 301.322Z" fill="#2F2E41"/>
<path d="M0 399.244C2.44252 402.073 4.12325 405.849 4.53418 410.436C5.93715 426.095 8.77872 442.175 6.32617 457.655C5.24292 464.475 3.10219 471.103 0 477.246V399.244Z" fill="#2F2E41"/>
</svg>
