<svg width="825" height="666" viewBox="0 0 825 666" fill="none" xmlns="http://www.w3.org/2000/svg">
<path d="M791.352 589.339H548.767C539.942 589.328 531.48 585.526 525.24 578.767C518.999 572.007 515.488 562.842 515.479 553.283V138.82C515.488 129.261 518.999 120.096 525.24 113.336C531.48 106.577 539.942 102.774 548.767 102.764H791.352C800.177 102.774 808.639 106.577 814.88 113.336C821.12 120.096 824.631 129.261 824.641 138.82V553.283C824.631 562.842 821.12 572.007 814.88 578.767C808.639 585.526 800.177 589.328 791.352 589.339Z" fill="#3F3D56"/>
<path d="M795.374 124.279H548.31C545.547 124.282 542.898 125.473 540.945 127.589C538.991 129.705 537.892 132.573 537.889 135.566V555.433C537.893 558.425 538.992 561.293 540.946 563.409C542.899 565.525 545.547 566.716 548.31 566.72H795.374C798.137 566.717 800.786 565.526 802.739 563.41C804.693 561.294 805.792 558.425 805.795 555.433V135.566C805.792 132.573 804.693 129.705 802.739 127.589C800.786 125.473 798.137 124.282 795.374 124.279Z" fill="white"/>
<path d="M554.697 102.763C554.698 102.032 554.967 101.331 555.444 100.814C555.921 100.297 556.569 100.006 557.244 100.005H574.561C575.236 100.005 575.884 100.296 576.362 100.813C576.839 101.33 577.108 102.032 577.108 102.763C577.108 103.495 576.839 104.197 576.362 104.714C575.884 105.231 575.236 105.522 574.561 105.522H557.244C556.569 105.521 555.921 105.23 555.444 104.713C554.967 104.196 554.698 103.495 554.697 102.763Z" fill="#E6E6E6"/>
<path d="M583.219 102.763C583.22 102.032 583.488 101.331 583.966 100.814C584.443 100.297 585.09 100.006 585.765 100.005H603.083C603.758 100.005 604.406 100.296 604.883 100.813C605.361 101.33 605.629 102.032 605.629 102.763C605.629 103.495 605.361 104.197 604.883 104.714C604.406 105.231 603.758 105.522 603.083 105.522H585.765C585.09 105.521 584.443 105.23 583.966 104.713C583.488 104.196 583.22 103.495 583.219 102.763Z" fill="#E6E6E6"/>
<path d="M754.354 102.763C754.354 102.032 754.623 101.331 755.1 100.814C755.578 100.297 756.225 100.006 756.9 100.005H774.217C774.893 100.005 775.54 100.296 776.018 100.813C776.496 101.33 776.764 102.032 776.764 102.763C776.764 103.495 776.496 104.197 776.018 104.714C775.54 105.231 774.893 105.522 774.217 105.522H756.9C756.225 105.521 755.578 105.23 755.1 104.713C754.623 104.196 754.354 103.495 754.354 102.763Z" fill="#2F2E41"/>
<path d="M706.079 558.07C706.079 560.972 706.028 563.863 705.906 566.72H548.31C545.547 566.716 542.899 565.525 540.946 563.409C538.992 561.293 537.893 558.425 537.889 555.433V344.098C584.82 352.311 627.519 378.353 658.337 417.56C689.155 456.767 706.08 506.578 706.079 558.07Z" fill="#F2F2F2"/>
<path d="M700.727 232.177H641.952C639.278 232.177 637.109 234.525 637.109 237.422V243.967C637.109 246.864 639.278 249.213 641.952 249.213H700.727C703.402 249.213 705.57 246.864 705.57 243.967V237.422C705.57 234.525 703.402 232.177 700.727 232.177Z" fill="#33CC99"/>
<path d="M738.083 266.249H604.597C601.922 266.249 599.754 268.597 599.754 271.494V278.04C599.754 280.937 601.922 283.285 604.597 283.285H738.083C740.757 283.285 742.926 280.937 742.926 278.04V271.494C742.926 268.597 740.757 266.249 738.083 266.249Z" fill="#3F3D56"/>
<path d="M738.083 300.322H604.597C601.922 300.322 599.754 302.67 599.754 305.567V312.113C599.754 315.009 601.922 317.358 604.597 317.358H738.083C740.757 317.358 742.926 315.009 742.926 312.113V305.567C742.926 302.67 740.757 300.322 738.083 300.322Z" fill="#3F3D56"/>
<path d="M715.226 538.026C714.46 538.064 713.703 537.846 713.055 537.402C712.408 536.958 711.902 536.31 711.607 535.544C711.311 534.778 711.24 533.933 711.403 533.122C711.566 532.311 711.955 531.574 712.517 531.011L712.773 529.908C712.74 529.82 712.706 529.732 712.672 529.643C711.901 527.671 710.609 525.989 708.958 524.809C707.307 523.629 705.372 523.004 703.394 523.012C701.416 523.02 699.485 523.661 697.842 524.854C696.2 526.047 694.919 527.739 694.162 529.718C691.135 537.615 687.28 545.526 686.331 553.877C685.913 557.568 686.09 561.309 686.852 564.935C679.742 548.135 676.05 529.875 676.026 511.394C676.024 506.757 676.262 502.122 676.739 497.514C677.132 493.735 677.678 489.984 678.376 486.259C682.187 466.051 690.37 447.109 702.252 430.991C708.003 427.592 712.653 422.366 715.577 416.016C716.637 413.733 717.385 411.297 717.8 408.782C717.151 408.874 716.492 408.932 715.843 408.978C715.641 408.989 715.429 409.001 715.226 409.012L715.15 409.016C714.437 409.051 713.73 408.861 713.114 408.471C712.498 408.08 712 407.505 711.678 406.815C711.357 406.125 711.227 405.349 711.303 404.58C711.38 403.811 711.66 403.083 712.11 402.483C712.39 402.11 712.67 401.736 712.951 401.363C713.376 400.787 713.812 400.223 714.237 399.647C714.286 399.592 714.333 399.535 714.376 399.474C714.865 398.818 715.354 398.173 715.843 397.516C714.95 396.015 713.749 394.757 712.334 393.841C707.431 390.731 700.667 392.885 697.126 397.689C693.574 402.492 692.904 409.231 694.137 415.232C695.35 420.339 697.357 425.185 700.072 429.562C699.806 429.931 699.529 430.288 699.263 430.656C694.403 437.426 690.167 444.694 686.616 452.359C687.48 443.773 686.449 435.087 683.609 427.017C680.73 419.495 675.335 413.161 670.584 406.658C664.877 398.848 653.174 402.257 652.169 412.157C652.159 412.253 652.149 412.349 652.14 412.445C652.846 412.876 653.537 413.334 654.213 413.818C655.062 414.432 655.72 415.31 656.1 416.337C656.481 417.363 656.566 418.49 656.345 419.57C656.124 420.65 655.607 421.632 654.862 422.389C654.117 423.145 653.178 423.64 652.169 423.808L652.066 423.826C652.317 426.581 652.761 429.311 653.395 431.993C655.231 439.48 658.475 446.475 662.924 452.541C667.372 458.607 672.93 463.611 679.248 467.241C679.663 467.472 680.067 467.702 680.482 467.921C676.914 478.872 674.677 490.28 673.825 501.856C673.342 508.686 673.371 515.547 673.91 522.372L673.878 522.13C672.516 514.541 668.779 507.693 663.296 502.743C655.153 495.498 643.648 492.829 634.863 487.005C633.929 486.356 632.843 486.01 631.734 486.007C630.624 486.004 629.537 486.345 628.601 486.989C627.664 487.633 626.917 488.554 626.448 489.643C625.979 490.732 625.807 491.944 625.953 493.135C625.965 493.22 625.976 493.305 625.989 493.39C627.298 493.967 628.573 494.633 629.807 495.382C630.512 495.814 631.203 496.271 631.879 496.756C632.728 497.37 633.386 498.248 633.767 499.274C634.147 500.301 634.233 501.428 634.012 502.508C633.791 503.588 633.274 504.57 632.529 505.326C631.784 506.083 630.845 506.578 629.836 506.746L629.732 506.763C629.658 506.775 629.594 506.786 629.519 506.798C631.757 512.585 634.898 517.912 638.804 522.544C643.629 528.153 649.461 532.634 655.942 535.714C662.423 538.794 669.417 540.408 676.494 540.457H676.505C678.426 549.499 681.209 558.301 684.811 566.72H714.482C714.588 566.363 714.684 565.995 714.78 565.638C712.033 565.825 709.276 565.647 706.57 565.108C708.771 562.182 710.972 559.233 713.174 556.307C713.223 556.252 713.269 556.195 713.312 556.134C714.429 554.637 715.556 553.151 716.673 551.653L716.673 551.652C716.733 547.061 716.246 542.481 715.226 538.026ZM681.248 465.629L681.263 465.606L681.248 465.652V465.629ZM674.675 529.802L674.42 529.18C674.431 528.73 674.431 528.281 674.42 527.82C674.42 527.694 674.399 527.567 674.399 527.44C674.495 528.235 674.58 529.03 674.686 529.825L674.675 529.802Z" fill="#CCCCCC"/>
<path d="M783.025 161.347H560.66C560.178 161.336 559.721 161.121 559.384 160.748C559.048 160.376 558.859 159.875 558.859 159.354C558.859 158.833 559.048 158.332 559.384 157.96C559.721 157.587 560.178 157.372 560.66 157.361H783.025C783.506 157.372 783.964 157.587 784.3 157.96C784.637 158.332 784.825 158.833 784.825 159.354C784.825 159.875 784.637 160.376 784.3 160.748C783.964 161.121 783.506 161.336 783.025 161.347Z" fill="#3F3D56"/>
<path d="M572.523 151.597C575.51 151.597 577.932 148.915 577.932 145.607C577.932 142.3 575.51 139.618 572.523 139.618C569.536 139.618 567.114 142.3 567.114 145.607C567.114 148.915 569.536 151.597 572.523 151.597Z" fill="#3F3D56"/>
<path d="M591.209 151.597C594.196 151.597 596.618 148.915 596.618 145.607C596.618 142.3 594.196 139.618 591.209 139.618C588.221 139.618 585.8 142.3 585.8 145.607C585.8 148.915 588.221 151.597 591.209 151.597Z" fill="#3F3D56"/>
<path d="M609.894 151.597C612.881 151.597 615.303 148.915 615.303 145.607C615.303 142.3 612.881 139.618 609.894 139.618C606.907 139.618 604.485 142.3 604.485 145.607C604.485 148.915 606.907 151.597 609.894 151.597Z" fill="#3F3D56"/>
<path d="M774.333 141.932H762.229C761.989 141.937 761.76 142.044 761.592 142.23C761.424 142.415 761.33 142.665 761.33 142.925C761.33 143.185 761.424 143.434 761.592 143.62C761.76 143.806 761.989 143.913 762.229 143.918H774.333C774.573 143.913 774.801 143.806 774.969 143.62C775.138 143.434 775.232 143.185 775.232 142.925C775.232 142.665 775.138 142.415 774.969 142.23C774.801 142.044 774.573 141.937 774.333 141.932Z" fill="#3F3D56"/>
<path d="M774.333 145.659H762.229C761.989 145.664 761.76 145.771 761.592 145.956C761.424 146.142 761.33 146.391 761.33 146.651C761.33 146.911 761.424 147.161 761.592 147.346C761.76 147.532 761.989 147.639 762.229 147.644H774.333C774.573 147.639 774.801 147.532 774.969 147.346C775.138 147.161 775.232 146.911 775.232 146.651C775.232 146.391 775.138 146.142 774.969 145.956C774.801 145.771 774.573 145.664 774.333 145.659Z" fill="#3F3D56"/>
<path d="M774.333 149.38H762.229C761.989 149.385 761.76 149.492 761.592 149.678C761.424 149.863 761.33 150.113 761.33 150.373C761.33 150.633 761.424 150.882 761.592 151.068C761.76 151.253 761.989 151.36 762.229 151.365H774.333C774.573 151.36 774.801 151.253 774.969 151.068C775.138 150.882 775.232 150.633 775.232 150.373C775.232 150.113 775.138 149.863 774.969 149.678C774.801 149.492 774.573 149.385 774.333 149.38Z" fill="#3F3D56"/>
<path d="M413.547 344.256H284.625C282.801 344.259 281.053 345.046 279.765 346.445C278.477 347.844 277.755 349.739 277.757 351.714V572.305H420.433V351.714C420.433 350.735 420.255 349.765 419.91 348.859C419.564 347.954 419.057 347.132 418.417 346.439C417.777 345.747 417.018 345.197 416.182 344.823C415.347 344.448 414.451 344.255 413.547 344.256ZM349.52 469.592C345.488 469.572 341.627 467.828 338.776 464.74C335.925 461.653 334.315 457.47 334.296 453.103V427.66C334.3 423.29 335.905 419.099 338.76 416.01C341.614 412.921 345.484 411.185 349.52 411.185C353.555 411.185 357.425 412.921 360.28 416.01C363.134 419.099 364.74 423.29 364.743 427.66V453.103C364.724 457.47 363.114 461.653 360.264 464.741C357.413 467.828 353.551 469.572 349.52 469.592Z" fill="#3F3D56"/>
<path d="M277.314 565.249V586.531C277.317 587.634 277.722 588.691 278.442 589.471C279.162 590.251 280.138 590.69 281.156 590.692H417.034C418.051 590.686 419.026 590.246 419.745 589.467C420.464 588.688 420.87 587.633 420.875 586.531V565.249L277.314 565.249Z" fill="#2F2E41"/>
<path d="M627.029 0H75.9392C71.2045 0.00815866 66.6658 2.049 63.3179 5.6753C59.9699 9.30159 58.0857 14.2176 58.0781 19.3459V422.141C58.0827 427.271 59.9659 432.188 63.3145 435.815C66.6632 439.442 71.2036 441.482 75.9392 441.487H627.029C631.765 441.482 636.305 439.442 639.654 435.815C643.003 432.188 644.886 427.271 644.89 422.141V19.3459C644.883 14.2176 642.998 9.30159 639.651 5.6753C636.303 2.049 631.764 0.00815547 627.029 0Z" fill="#3F3D56"/>
<path d="M622.43 13.9733H80.5442C78.0091 13.9792 75.5797 15.0742 73.789 17.0178C71.9983 18.9614 70.9924 21.5951 70.9922 24.341V417.153C70.9965 419.895 72.0043 422.524 73.7947 424.463C75.5851 426.402 78.0122 427.494 80.5442 427.499H622.43C624.962 427.494 627.389 426.402 629.18 424.463C630.97 422.524 631.978 419.895 631.982 417.153V24.341C631.982 21.5951 630.976 18.9614 629.185 17.0178C627.395 15.0742 624.965 13.9792 622.43 13.9733Z" fill="white"/>
<path d="M631.982 24.341V417.153C631.978 419.895 630.97 422.524 629.18 424.463C627.389 426.402 624.962 427.494 622.43 427.499H431.349C410.211 406.265 392.869 380.992 380.193 352.946C379.359 351.139 378.564 349.311 377.81 347.461C366.26 320.315 359.267 291.159 357.157 261.357C357.018 259.529 356.898 257.701 356.819 255.851C356.561 251.118 356.442 246.322 356.442 241.504C356.404 209.459 361.99 177.699 372.904 147.915C373.56 146.065 374.255 144.236 374.97 142.408C396.935 86.5103 436.624 40.9581 486.874 13.9733H622.43C624.965 13.9792 627.395 15.0742 629.185 17.0178C630.976 18.9614 631.982 21.5951 631.982 24.341Z" fill="#6C63FF"/>
<path d="M595.19 68.0939H88.1496C87.6223 68.0817 87.1203 67.8463 86.7514 67.4381C86.3824 67.0298 86.1758 66.4812 86.1758 65.9099C86.1758 65.3386 86.3824 64.7901 86.7514 64.3818C87.1203 63.9736 87.6223 63.7381 88.1496 63.726H595.19C595.717 63.7381 596.219 63.9736 596.588 64.3818C596.957 64.7901 597.164 65.3386 597.164 65.9099C597.164 66.4812 596.957 67.0298 596.588 67.4381C596.219 67.8463 595.717 68.0817 595.19 68.0939Z" fill="#3F3D56"/>
<path d="M122.664 52.5749C129.191 52.5749 134.481 46.7168 134.481 39.4905C134.481 32.2641 129.191 26.406 122.664 26.406C116.138 26.406 110.848 32.2641 110.848 39.4905C110.848 46.7168 116.138 52.5749 122.664 52.5749Z" fill="#3F3D56"/>
<path d="M163.486 52.5749C170.012 52.5749 175.303 46.7168 175.303 39.4905C175.303 32.2641 170.012 26.406 163.486 26.406C156.96 26.406 151.669 32.2641 151.669 39.4905C151.669 46.7168 156.96 52.5749 163.486 52.5749Z" fill="#3F3D56"/>
<path d="M204.308 52.5749C210.834 52.5749 216.125 46.7168 216.125 39.4905C216.125 32.2641 210.834 26.406 204.308 26.406C197.782 26.406 192.491 32.2641 192.491 39.4905C192.491 46.7168 197.782 52.5749 204.308 52.5749Z" fill="#3F3D56"/>
<path d="M570.611 29.6492H541.614C541.039 29.6615 540.491 29.9174 540.089 30.3621C539.686 30.8068 539.461 31.4046 539.461 32.0273C539.461 32.6501 539.686 33.2479 540.089 33.6926C540.491 34.1372 541.039 34.3932 541.614 34.4055H570.611C571.186 34.3932 571.733 34.1372 572.136 33.6926C572.538 33.2479 572.764 32.6501 572.764 32.0273C572.764 31.4046 572.538 30.8068 572.136 30.3621C571.733 29.9174 571.186 29.6615 570.611 29.6492Z" fill="#3F3D56"/>
<path d="M570.611 38.576H541.614C541.039 38.5884 540.491 38.8443 540.089 39.289C539.686 39.7337 539.461 40.3315 539.461 40.9542C539.461 41.5769 539.686 42.1748 540.089 42.6195C540.491 43.0641 541.039 43.3201 541.614 43.3324H570.611C571.186 43.3201 571.733 43.0641 572.136 42.6195C572.538 42.1748 572.764 41.5769 572.764 40.9542C572.764 40.3315 572.538 39.7337 572.136 39.289C571.733 38.8443 571.186 38.5884 570.611 38.576Z" fill="#3F3D56"/>
<path d="M570.611 47.4913H541.614C541.039 47.5037 540.491 47.7596 540.089 48.2043C539.686 48.6489 539.461 49.2468 539.461 49.8695C539.461 50.4922 539.686 51.0901 540.089 51.5348C540.491 51.9794 541.039 52.2354 541.614 52.2477H570.611C571.186 52.2354 571.733 51.9794 572.136 51.5348C572.538 51.0901 572.764 50.4922 572.764 49.8695C572.764 49.2468 572.538 48.6489 572.136 48.2043C571.733 47.7596 571.186 47.5037 570.611 47.4913Z" fill="#3F3D56"/>
<path d="M243.399 195.685H172.494C169.82 195.685 167.651 198.034 167.651 200.931V209.106C167.651 212.003 169.82 214.351 172.494 214.351H243.399C246.074 214.351 248.242 212.003 248.242 209.106V200.931C248.242 198.034 246.074 195.685 243.399 195.685Z" fill="#33CC99"/>
<path d="M284.328 233.018H131.564C128.89 233.018 126.722 235.366 126.722 238.263V246.438C126.722 249.335 128.89 251.684 131.564 251.684H284.328C287.003 251.684 289.171 249.335 289.171 246.438V238.263C289.171 235.366 287.003 233.018 284.328 233.018Z" fill="#3F3D56"/>
<path d="M284.328 270.35H131.564C128.89 270.35 126.722 272.698 126.722 275.595V283.77C126.722 286.667 128.89 289.016 131.564 289.016H284.328C287.003 289.016 289.171 286.667 289.171 283.77V275.595C289.171 272.698 287.003 270.35 284.328 270.35Z" fill="#3F3D56"/>
<path d="M139.981 404.978C139.993 412.667 138.729 420.295 136.248 427.499L80.5442 427.499C78.0122 427.494 75.5851 426.402 73.7947 424.463C72.0043 422.524 70.9965 419.895 70.9922 417.153V341.266C74.1046 340.721 77.2524 340.448 80.4052 340.449C88.229 340.448 95.9763 342.117 103.205 345.36C110.433 348.602 117.001 353.356 122.533 359.348C128.065 365.34 132.454 372.454 135.448 380.283C138.441 388.112 139.982 396.504 139.981 404.978Z" fill="#6C63FF"/>
<path d="M632.478 147.915V142.408H547.264V78.5887H542.2V142.408H444.534V78.5887H439.47V142.408L374.97 142.408C374.255 144.236 373.56 146.065 372.904 147.915L439.47 147.915V255.851L356.819 255.851C356.898 257.701 357.018 259.529 357.157 261.357L439.47 261.357V347.461L377.81 347.461C378.564 349.311 379.359 351.139 380.193 352.946L439.47 352.946V425.326H444.534V352.946H542.2V425.326H547.264V352.946H632.478V347.461H547.264C547.264 336.154 549.32 324.957 553.315 314.51C557.31 304.064 563.166 294.572 570.547 286.576C577.929 278.581 586.692 272.239 596.337 267.911C605.982 263.584 616.319 261.357 626.758 261.357H632.478V255.851H547.264V147.915H632.478ZM542.2 347.461H444.534V261.357H542.2V347.461ZM542.2 255.851H444.534V253.7C444.534 225.644 454.824 198.737 473.14 178.898C491.456 159.06 516.297 147.915 542.2 147.915L542.2 255.851Z" fill="#564FCC"/>
<path d="M563.868 386.746C562.781 386.8 561.705 386.491 560.785 385.861C559.866 385.23 559.148 384.309 558.728 383.221C558.308 382.134 558.207 380.933 558.439 379.782C558.67 378.63 559.223 377.583 560.022 376.783C560.155 376.207 560.252 375.794 560.385 375.217C560.337 375.092 560.289 374.967 560.241 374.842C555.355 362.223 538.797 362.31 533.953 374.947C529.654 386.163 524.18 397.399 522.832 409.258C522.238 414.5 522.489 419.814 523.572 424.963C513.474 401.103 508.23 375.171 508.196 348.923C508.194 342.337 508.532 335.756 509.208 329.21C509.767 323.844 510.542 318.516 511.534 313.227C516.947 284.526 528.567 257.625 545.442 234.733C553.61 229.906 560.215 222.484 564.367 213.466C565.872 210.224 566.935 206.763 567.524 203.192C566.603 203.323 565.667 203.404 564.745 203.47C564.458 203.486 564.156 203.502 563.869 203.519L563.761 203.524C562.748 203.573 561.744 203.304 560.869 202.75C559.994 202.195 559.286 201.379 558.83 200.398C558.374 199.418 558.189 198.316 558.297 197.224C558.406 196.133 558.804 195.099 559.443 194.246C559.84 193.716 560.238 193.186 560.637 192.656C561.241 191.838 561.86 191.036 562.464 190.218C562.534 190.141 562.599 190.059 562.661 189.973C563.355 189.04 564.05 188.124 564.745 187.192C563.477 185.06 561.771 183.274 559.761 181.973C552.798 177.556 543.192 180.615 538.162 187.437C533.117 194.259 532.166 203.83 533.918 212.353C535.413 219.649 538.676 226.341 542.346 232.704C541.968 233.228 541.575 233.735 541.198 234.259C534.295 243.872 528.279 254.196 523.236 265.081C524.462 252.886 522.999 240.551 518.965 229.089C514.877 218.407 507.214 209.411 500.467 200.176C492.361 189.084 475.741 193.925 474.313 207.986C474.299 208.122 474.286 208.258 474.272 208.394C475.275 209.006 476.256 209.656 477.216 210.344C478.422 211.217 479.356 212.464 479.897 213.921C480.437 215.379 480.558 216.98 480.245 218.514C479.931 220.047 479.197 221.443 478.139 222.517C477.08 223.591 475.747 224.293 474.314 224.533L474.167 224.557C474.524 228.47 475.155 232.347 476.055 236.156C478.662 246.79 483.269 256.725 489.587 265.339C495.906 273.954 503.799 281.062 512.772 286.217C513.361 286.544 513.935 286.871 514.525 287.182C509.457 302.735 506.279 318.936 505.069 335.378C504.385 345.077 504.425 354.821 505.19 364.514L505.145 364.171C503.211 353.392 497.903 343.667 490.116 336.637C478.551 326.347 462.212 322.558 449.735 314.286C443.729 310.305 436.033 315.45 437.081 322.992C437.098 323.113 437.115 323.233 437.132 323.353C438.992 324.174 440.803 325.119 442.554 326.183C443.556 326.796 444.538 327.446 445.497 328.134C446.703 329.006 447.638 330.253 448.178 331.711C448.719 333.169 448.84 334.769 448.526 336.303C448.213 337.837 447.479 339.232 446.42 340.306C445.362 341.38 444.029 342.083 442.595 342.322L442.448 342.347C442.343 342.363 442.252 342.38 442.146 342.396C445.324 350.615 449.785 358.18 455.332 364.76C462.185 372.724 470.468 379.089 479.672 383.463C488.877 387.838 498.809 390.13 508.86 390.199H508.876C511.604 403.041 515.557 415.542 520.672 427.499H562.812C562.963 426.992 563.099 426.468 563.235 425.961C559.334 426.227 555.418 425.974 551.574 425.208C554.701 421.053 557.827 416.865 560.954 412.71C561.024 412.632 561.089 412.55 561.15 412.464C562.736 410.337 564.337 408.227 565.923 406.1L565.924 406.098C566.008 399.579 565.318 393.075 563.869 386.747L563.868 386.746ZM515.612 283.927L515.634 283.894L515.612 283.959V283.927ZM506.278 375.066L505.915 374.183C505.93 373.545 505.93 372.907 505.915 372.252C505.915 372.072 505.885 371.892 505.885 371.712C506.021 372.841 506.142 373.97 506.293 375.099L506.278 375.066Z" fill="#2F2E41"/>
<path d="M188.627 279.996V218.652C188.627 209.236 185.173 200.205 179.026 193.547C172.879 186.889 164.542 183.148 155.848 183.148H35.8589C27.1654 183.148 18.828 186.889 12.6808 193.547C6.53354 200.205 3.08008 209.236 3.08008 218.652V555.188C3.08008 564.604 6.53355 573.635 12.6808 580.293C18.828 586.951 27.1654 590.692 35.8589 590.692H155.848C160.153 590.692 164.415 589.774 168.392 587.989C172.369 586.205 175.982 583.59 179.026 580.293C182.07 576.996 184.484 573.082 186.132 568.775C187.779 564.467 188.627 559.85 188.627 555.188V323.661C189.175 323.661 189.701 323.425 190.089 323.005C190.476 322.585 190.694 322.016 190.694 321.422V282.235C190.694 281.641 190.476 281.071 190.089 280.651C189.701 280.232 189.175 279.996 188.627 279.996Z" fill="#3F3D56"/>
<path d="M181.651 218.896V554.946C181.652 561.926 179.109 568.625 174.577 573.586C170.044 578.548 163.886 581.372 157.442 581.445C157.353 581.455 157.264 581.459 157.174 581.457H36.6013C30.1099 581.456 23.8846 578.663 19.2946 573.691C14.7045 568.719 12.1256 561.977 12.125 554.946V218.896C12.1256 211.865 14.7045 205.122 19.2946 200.15C23.8846 195.178 30.1099 192.385 36.6013 192.384H51.2334C50.5141 194.298 50.24 196.373 50.4351 198.428C50.6303 200.483 51.2887 202.455 52.3526 204.169C53.4164 205.884 54.853 207.289 56.5359 208.261C58.2189 209.234 60.0966 209.743 62.0039 209.744H130.745C132.651 209.739 134.526 209.226 136.206 208.253C137.887 207.279 139.321 205.874 140.383 204.16C141.445 202.447 142.103 200.477 142.298 198.424C142.494 196.371 142.221 194.297 141.504 192.384H157.174C163.666 192.385 169.891 195.178 174.481 200.15C179.071 205.122 181.65 211.865 181.651 218.896Z" fill="white"/>
<path d="M157.744 571.084C157.744 574.566 157.643 578.02 157.442 581.445C157.353 581.455 157.264 581.459 157.174 581.457H36.6013C30.1099 581.456 23.8846 578.663 19.2946 573.691C14.7045 568.719 12.1256 561.977 12.125 554.946V405.187C51.4098 407.332 88.4311 425.748 115.534 456.625C142.637 487.502 157.748 528.479 157.744 571.084Z" fill="#F2F2F2"/>
<path d="M3.74242 314.314C3.00266 314.313 2.29345 313.994 1.77036 313.427C1.24727 312.861 0.95302 312.093 0.952148 311.291V290.74C0.952148 289.938 1.24613 289.17 1.76941 288.603C2.29268 288.036 3.00239 287.718 3.74242 287.718C4.48245 287.718 5.19216 288.036 5.71543 288.603C6.23871 289.17 6.53269 289.938 6.53269 290.74V311.291C6.53182 312.093 6.23757 312.861 5.71448 313.427C5.19139 313.994 4.48218 314.313 3.74242 314.314Z" fill="#2F2E41"/>
<path d="M111.692 297.904H82.083C79.4084 297.904 77.2402 300.253 77.2402 303.149V311.325C77.2402 314.222 79.4084 316.57 82.083 316.57H111.692C114.367 316.57 116.535 314.222 116.535 311.325V303.149C116.535 300.253 114.367 297.904 111.692 297.904Z" fill="#33CC99"/>
<path d="M152.622 335.236H41.1543C38.4797 335.236 36.3115 337.585 36.3115 340.482V348.657C36.3115 351.554 38.4797 353.902 41.1543 353.902H152.622C155.296 353.902 157.465 351.554 157.465 348.657V340.482C157.465 337.585 155.296 335.236 152.622 335.236Z" fill="#3F3D56"/>
<path d="M152.622 372.568H41.1543C38.4797 372.568 36.3115 374.917 36.3115 377.814V385.989C36.3115 388.886 38.4797 391.235 41.1543 391.235H152.622C155.296 391.235 157.465 388.886 157.465 385.989V377.814C157.465 374.917 155.296 372.568 152.622 372.568Z" fill="#3F3D56"/>
<path d="M125.801 562.333C125.291 562.358 124.786 562.213 124.354 561.917C123.923 561.621 123.586 561.189 123.389 560.679C123.192 560.169 123.145 559.605 123.253 559.065C123.362 558.524 123.621 558.033 123.996 557.658L124.167 556.923C124.144 556.864 124.122 556.805 124.099 556.746C123.585 555.432 122.724 554.311 121.624 553.525C120.524 552.738 119.234 552.322 117.916 552.327C116.598 552.332 115.31 552.759 114.216 553.554C113.121 554.35 112.268 555.477 111.763 556.796C109.745 562.059 107.177 567.332 106.544 572.897C106.265 575.357 106.383 577.85 106.891 580.267C102.152 569.07 99.6918 556.901 99.6759 544.584C99.675 541.493 99.8335 538.405 100.151 535.333C100.413 532.815 100.777 530.315 101.242 527.833C103.782 514.364 109.236 501.741 117.154 490.998C120.987 488.733 124.087 485.25 126.035 481.018C126.741 479.497 127.24 477.873 127.517 476.197C127.084 476.258 126.645 476.297 126.213 476.327C126.078 476.335 125.936 476.343 125.801 476.35L125.751 476.353C125.275 476.376 124.804 476.25 124.394 475.99C123.983 475.729 123.651 475.346 123.437 474.886C123.223 474.426 123.136 473.909 123.187 473.396C123.238 472.884 123.425 472.399 123.724 471.999C123.911 471.75 124.098 471.501 124.285 471.253C124.568 470.869 124.859 470.493 125.142 470.109C125.175 470.073 125.206 470.034 125.234 469.994C125.561 469.556 125.887 469.126 126.213 468.689C125.617 467.688 124.817 466.85 123.874 466.24C120.606 464.167 116.098 465.602 113.738 468.804C111.371 472.005 110.924 476.496 111.746 480.496C112.555 483.899 113.892 487.129 115.701 490.046C115.524 490.292 115.34 490.53 115.163 490.775C111.924 495.287 109.1 500.131 106.734 505.239C107.309 499.517 106.622 493.728 104.73 488.35C102.811 483.337 99.2153 479.115 96.0488 474.782C95.2113 473.618 94.074 472.749 92.7806 472.284C91.4872 471.82 90.0957 471.782 88.7822 472.174C87.4687 472.566 86.292 473.372 85.4009 474.488C84.5098 475.604 83.9443 476.982 83.7758 478.447C83.7693 478.51 83.763 478.574 83.7568 478.638C84.2272 478.926 84.6876 479.231 85.138 479.553C85.7039 479.963 86.1424 480.548 86.396 481.232C86.6497 481.916 86.7066 482.667 86.5594 483.387C86.4122 484.107 86.0677 484.761 85.571 485.265C85.0744 485.769 84.4487 486.099 83.7761 486.212L83.7072 486.223C83.8748 488.059 84.171 489.879 84.5932 491.666C85.8167 496.656 87.9787 501.318 90.9436 505.361C93.9086 509.403 97.6127 512.739 101.824 515.158C102.1 515.311 102.369 515.465 102.646 515.611C100.268 522.909 98.7765 530.512 98.2088 538.227C97.8874 542.779 97.9064 547.352 98.2655 551.9L98.2442 551.739C97.3369 546.681 94.8459 542.117 91.1919 538.818C85.7647 533.99 78.0971 532.211 72.2422 528.33C71.6199 527.897 70.8964 527.666 70.157 527.664C69.4175 527.662 68.693 527.889 68.0688 528.319C67.4446 528.748 66.9468 529.362 66.6342 530.088C66.3215 530.814 66.207 531.621 66.3041 532.415L66.328 532.585C67.2008 532.97 68.0506 533.413 68.8725 533.913C69.3428 534.2 69.8032 534.505 70.2537 534.828C70.8196 535.237 71.2581 535.823 71.5117 536.507C71.7654 537.191 71.8223 537.942 71.6751 538.662C71.5279 539.381 71.1834 540.036 70.6867 540.54C70.1901 541.044 69.5644 541.374 68.8918 541.486L68.8229 541.498C68.7733 541.505 68.7307 541.513 68.6811 541.521C70.1724 545.378 72.2655 548.928 74.8687 552.015C78.0845 555.753 81.9713 558.74 86.2906 560.792C90.61 562.845 95.271 563.921 99.9878 563.953H99.9949C101.275 569.979 103.13 575.846 105.53 581.457H125.305C125.376 581.219 125.44 580.973 125.504 580.735C123.673 580.86 121.836 580.741 120.032 580.382C121.499 578.432 122.966 576.467 124.433 574.517C124.466 574.48 124.497 574.442 124.526 574.401C125.27 573.404 126.021 572.413 126.765 571.415L126.766 571.414C126.805 568.355 126.481 565.302 125.801 562.333ZM103.156 514.083L103.166 514.068L103.156 514.098V514.083ZM98.7758 556.852L98.6057 556.437C98.6128 556.138 98.6128 555.838 98.6057 555.531C98.6057 555.447 98.5916 555.362 98.5916 555.278C98.6553 555.808 98.712 556.337 98.7829 556.867L98.7758 556.852Z" fill="#CCCCCC"/>
<path d="M3.1848 274.42C2.44504 274.419 1.73583 274.1 1.21274 273.534C0.689654 272.967 0.395403 272.199 0.394531 271.398V250.846C0.394531 250.045 0.688512 249.276 1.21179 248.709C1.73507 248.142 2.44478 247.824 3.1848 247.824C3.92483 247.824 4.63454 248.142 5.15782 248.709C5.68109 249.276 5.97507 250.045 5.97507 250.846V271.398C5.97421 272.199 5.67995 272.967 5.15686 273.534C4.63377 274.1 3.92456 274.419 3.1848 274.42Z" fill="#2F2E41"/>
<path d="M77.4062 195.841C77.4071 195.04 77.7014 194.272 78.2245 193.705C78.7476 193.139 79.4568 192.82 80.1965 192.819H99.1704C99.9104 192.819 100.62 193.138 101.143 193.704C101.667 194.271 101.961 195.04 101.961 195.841C101.961 196.643 101.667 197.412 101.143 197.978C100.62 198.545 99.9104 198.864 99.1704 198.864H80.1965C79.4568 198.863 78.7476 198.544 78.2245 197.977C77.7014 197.411 77.4071 196.643 77.4062 195.841Z" fill="#2F2E41"/>
<path d="M3.74242 349.372C3.00266 349.371 2.29345 349.052 1.77036 348.485C1.24727 347.919 0.95302 347.151 0.952148 346.349V325.798C0.952148 324.997 1.24613 324.228 1.76941 323.661C2.29268 323.094 3.00239 322.776 3.74242 322.776C4.48245 322.776 5.19216 323.094 5.71543 323.661C6.23871 324.228 6.53269 324.997 6.53269 325.798V346.349C6.53182 347.151 6.23757 347.919 5.71448 348.485C5.19139 349.052 4.48218 349.371 3.74242 349.372Z" fill="#2F2E41"/>
<path d="M109.773 198.864C111.314 198.864 112.563 197.51 112.563 195.841C112.563 194.172 111.314 192.819 109.773 192.819C108.232 192.819 106.982 194.172 106.982 195.841C106.982 197.51 108.232 198.864 109.773 198.864Z" fill="#2F2E41"/>
<path d="M303.359 273.34L298.323 274.509C298.29 272.227 298.028 269.956 297.541 267.737C297.083 270.455 296.118 273.044 294.705 275.345L265.825 282.026L238.097 250.331C238.054 234.484 246.179 222.441 260.747 222.441C261.625 222.441 262.534 222.487 263.455 222.578C271.325 221.152 279.4 223.088 285.979 227.98C292.557 232.873 297.127 240.339 298.725 248.807C309.051 259.819 305.306 266.293 303.359 273.34Z" fill="#2F2E41"/>
<path d="M317.558 643.994H328.034L333.018 600.226L317.556 600.227L317.558 643.994Z" fill="#FFB6B6"/>
<path d="M314.959 638.397L331.52 637.326V645.011L347.264 656.789C348.042 657.371 348.628 658.206 348.936 659.174C349.244 660.142 349.258 661.191 348.977 662.168C348.696 663.145 348.134 663.999 347.372 664.606C346.611 665.213 345.691 665.54 344.746 665.54H325.03L321.632 657.938L320.305 665.54H312.871L314.959 638.397Z" fill="#2F2E41"/>
<path d="M194.826 631.643L203.938 637.243L228.213 601.84L214.765 593.576L194.826 631.643Z" fill="#FFB6B6"/>
<path d="M195.116 625.386L210.008 633.307L206.506 639.991L214.834 658.65C215.245 659.572 215.374 660.612 215.201 661.618C215.028 662.624 214.563 663.544 213.873 664.244C213.183 664.944 212.305 665.386 211.366 665.507C210.428 665.628 209.479 665.42 208.657 664.915L191.509 654.376L192.017 645.948L187.399 651.851L180.934 647.877L195.116 625.386Z" fill="#2F2E41"/>
<path d="M356.281 281.008C354.939 281.218 353.655 281.745 352.521 282.55C351.387 283.356 350.43 284.421 349.717 285.671C349.004 286.921 348.552 288.325 348.395 289.784C348.237 291.243 348.376 292.722 348.803 294.116L332.772 309.145L338.828 321.925L361.192 300.357C363.307 299.425 365.033 297.684 366.043 295.466C367.053 293.247 367.276 290.705 366.671 288.32C366.066 285.935 364.674 283.873 362.759 282.525C360.844 281.178 358.539 280.638 356.281 281.008Z" fill="#FFB6B6"/>
<path d="M340.138 332.688C334.79 341.461 322.806 349.932 305.019 357.443C304.038 357.869 302.986 358.07 301.93 358.032C300.873 357.995 299.836 357.72 298.882 357.226C292.17 353.917 287.868 341.617 287.464 340.424L274.464 321.429C274.233 321.152 268.154 313.679 268.849 306.332C269.006 304.793 269.468 303.308 270.205 301.98C270.941 300.653 271.935 299.514 273.116 298.641C282.957 290.739 305.013 318.183 307.875 321.832L322.269 312.332L332.757 307.264L341.224 296.105L353.146 309.307L342.424 327.782C341.852 329.514 341.084 331.162 340.138 332.688Z" fill="#2F2E41"/>
<path d="M302.75 366.344C302.75 366.344 333.553 419.488 327.973 425.533C322.392 431.577 313.708 433.165 313.708 433.165L294.489 406.19L302.75 366.344Z" fill="#2F2E41"/>
<path d="M275.516 293.763L290.033 304.4C296.781 309.344 301.856 316.537 304.489 324.887C307.122 333.238 307.169 342.29 304.623 350.672L300.536 364.128L275.516 293.763Z" fill="#2F2E41"/>
<path d="M249.844 438.831L247.904 446.153L241.281 534.452L208.192 601.244L223.984 613.461L269.105 549.927L286.952 486.843L314.978 626.494L336.035 624.865L321.41 431.241L293.661 376.74L249.844 438.831Z" fill="#2F2E41"/>
<path d="M273.046 296.438L293.252 314.323C297.686 318.249 300.88 323.575 302.386 329.56C303.071 332.277 303.396 335.086 303.352 337.902L302.75 376.741L321.276 430.368C321.276 430.368 271.051 450.92 264.354 432.786C257.657 414.653 273.046 296.438 273.046 296.438Z" fill="#6C63FF"/>
<path d="M279.09 442.199C254 442.199 247.885 442.404 247.489 442.317L247.092 442.23V425.885L253.193 396.519C252.48 387.402 250.81 375.381 250.961 365.088C251.508 327.884 249.819 291.542 249.819 291.542L263.099 278.265L269.132 282.517L280.322 294.637C293.33 329.311 303.652 361.953 303.717 364.051L304.534 400.146L301.186 414.653C286.039 426.234 299.879 442.199 279.09 442.199Z" fill="#2F2E41"/>
<path d="M255.447 323.953L252.396 344.574L273.046 353.799L255.447 323.953Z" fill="#262534"/>
<path d="M276.249 274.396C287.414 274.396 296.466 264.592 296.466 252.499C296.466 240.405 287.414 230.601 276.249 230.601C265.084 230.601 256.032 240.405 256.032 252.499C256.032 264.592 265.084 274.396 276.249 274.396Z" fill="#FFB6B6"/>
<path d="M242.374 363.605C247.755 370.353 255.053 374.973 263.122 376.74C271.191 378.506 279.573 377.319 286.951 373.364L291.351 371.005L242.374 363.605Z" fill="#262534"/>
<path d="M312.723 358.564C311.822 357.467 310.709 356.597 309.463 356.016C308.217 355.435 306.869 355.156 305.513 355.201C304.157 355.245 302.827 355.611 301.616 356.272C300.405 356.934 299.342 357.875 298.503 359.029L278.091 352.822L271.583 365.338L300.523 373.665C302.407 375.063 304.699 375.664 306.964 375.354C309.23 375.045 311.312 373.845 312.816 371.984C314.32 370.123 315.141 367.728 315.124 365.255C315.107 362.782 314.253 360.401 312.723 358.564Z" fill="#FFB6B6"/>
<path d="M264.012 372.453C254.307 372.454 241.176 366.291 225.588 354.354C224.719 353.702 223.985 352.862 223.432 351.886C222.878 350.911 222.518 349.822 222.374 348.688C221.224 340.798 228.329 330.131 229.026 329.109L236.496 306.891C236.581 306.53 238.989 296.917 245.032 293.497C246.304 292.79 247.703 292.39 249.131 292.324C250.56 292.258 251.985 292.528 253.308 293.115C264.819 297.655 255.831 332.713 254.597 337.31L269.848 345.086L279.532 351.772L292.795 353.275L289.194 371.325L269.052 371.816C267.403 372.253 265.71 372.467 264.012 372.453Z" fill="#2F2E41"/>
<path d="M300.492 238.093C298.873 240.374 293.298 242.39 286.676 244.017C286.686 243.868 286.686 243.719 286.686 243.57C286.653 241.289 286.391 239.018 285.903 236.798C285.445 239.517 284.481 242.106 283.068 244.407C282.962 244.579 282.857 244.751 282.74 244.923C277.059 246.137 271.05 247.077 266.343 247.707C269.58 260.334 281.989 270.693 280.646 278.37L244.285 286.414C244.509 283.224 244.273 280.015 243.587 276.903C242.892 281.01 241.053 284.789 238.319 287.732L235.23 288.419L234.309 283.504C226.333 262.752 237.451 241.508 255.668 230.519C258.916 225.245 263.96 221.579 269.696 220.321L274.235 219.313C277.097 218.678 280.047 218.661 282.916 219.261C285.785 219.862 288.516 221.068 290.954 222.812C293.393 224.556 295.49 226.803 297.126 229.425C298.763 232.047 299.906 234.993 300.492 238.093Z" fill="#2F2E41"/>
<path d="M281.888 315.622L280.031 319.712C279.893 320.014 279.613 320.239 279.283 320.313L275.573 321.14L277.717 316.579L281.888 315.622Z" fill="#6C63FF"/>
<path d="M274.991 320.979L271.753 318.194C271.439 317.924 271.335 317.5 271.49 317.128L273.2 313.033L277.157 316.387L274.991 320.979Z" fill="#6C63FF"/>
<path d="M273.573 312.792L277.338 311.928C277.633 311.86 277.943 311.93 278.18 312.117L279.383 313.065L281.848 315.043L277.617 316.013L273.573 312.792Z" fill="#6C63FF"/>
</svg>
