<svg width="32" height="40" viewBox="0 0 32 40" fill="none" xmlns="http://www.w3.org/2000/svg">
<path fill-rule="evenodd" clip-rule="evenodd" d="M22.2466 39.724H17.0645V0H22.2466C27.1088 0 31.0645 3.74531 31.0645 8.34893V31.375C31.0645 35.9786 27.1088 39.724 22.2466 39.724ZM22.5061 38.9355H18.0643V0.935547H22.5061C26.6737 0.935547 30.0643 4.51832 30.0643 8.92215V30.9489C30.0643 35.3528 26.6737 38.9355 22.5061 38.9355Z" fill="#6C63FF"/>
<path d="M19.2455 3.41418H21.6953V4.17407H19.2455V3.41418Z" fill="#6C63FF"/>
<path d="M20.8496 2.56926V5.01904H20.0897V2.56926H20.8496Z" fill="#6C63FF"/>
<path d="M23.8123 13.0393C21.992 13.0393 20.5163 11.6407 20.5163 9.91534C20.5163 8.19003 21.992 6.79138 23.8123 6.79138C25.6327 6.79138 27.1084 8.19003 27.1084 9.91534C27.1084 11.6407 25.6327 13.0393 23.8123 13.0393Z" fill="#6C63FF"/>
<path d="M23.634 19.5405C22.7976 19.5405 22.1196 18.8979 22.1196 18.1052C22.1196 17.3125 22.7976 16.6699 23.634 16.6699C24.4704 16.6699 25.1484 17.3125 25.1484 18.1052C25.1484 18.8979 24.4704 19.5405 23.634 19.5405Z" fill="#6C63FF"/>
<path d="M27.0637 22.4534C26.2273 22.4534 25.5493 21.8108 25.5493 21.0181C25.5493 20.2254 26.2273 19.5828 27.0637 19.5828C27.9001 19.5828 28.5781 20.2254 28.5781 21.0181C28.5781 21.8108 27.9001 22.4534 27.0637 22.4534Z" fill="#6C63FF"/>
<path d="M20.384 22.4534C19.5476 22.4534 18.8696 21.8108 18.8696 21.0181C18.8696 20.2254 19.5476 19.5828 20.384 19.5828C21.2204 19.5828 21.8984 20.2254 21.8984 21.0181C21.8984 21.8108 21.2204 22.4534 20.384 22.4534Z" fill="#6C63FF"/>
<path d="M23.6789 25.3241C22.8426 25.3241 22.1645 24.6815 22.1645 23.8888C22.1645 23.0961 22.8426 22.4534 23.6789 22.4534C24.5153 22.4534 25.1934 23.0961 25.1934 23.8888C25.1934 24.6815 24.5153 25.3241 23.6789 25.3241Z" fill="#6C63FF"/>
<path d="M20.0707 27.1393H22.7432V29.6723H20.0707V27.1393Z" fill="#6C63FF"/>
<path fill-rule="evenodd" clip-rule="evenodd" d="M8.88233 39.724H14.0645V0H8.88233C4.02015 0 0.0644531 3.74531 0.0644531 8.34893V31.375C0.0644531 35.9786 4.02015 39.724 8.88233 39.724ZM8.62264 38.9355H13.0645V0.935547H8.62264C4.45505 0.935547 1.06445 4.51832 1.06445 8.92215V30.9489C1.06445 35.3528 4.45505 38.9355 8.62264 38.9355Z" fill="#33CC99"/>
<path d="M11.8844 3.41418H9.43457V4.17407H11.8844V3.41418Z" fill="#33CC99"/>
<path d="M7.31658 13.0393C9.13695 13.0393 10.6126 11.6407 10.6126 9.91534C10.6126 8.19003 9.13695 6.79138 7.31658 6.79138C5.49621 6.79138 4.02051 8.19003 4.02051 9.91534C4.02051 11.6407 5.49621 13.0393 7.31658 13.0393Z" fill="#33CC99"/>
<path d="M7.49488 19.5405C8.33126 19.5405 9.00929 18.8979 9.00929 18.1052C9.00929 17.3125 8.33126 16.6699 7.49488 16.6699C6.65849 16.6699 5.98047 17.3125 5.98047 18.1052C5.98047 18.8979 6.65849 19.5405 7.49488 19.5405Z" fill="#33CC99"/>
<path d="M4.06519 22.4534C4.90158 22.4534 5.5796 21.8108 5.5796 21.0181C5.5796 20.2254 4.90158 19.5828 4.06519 19.5828C3.22881 19.5828 2.55078 20.2254 2.55078 21.0181C2.55078 21.8108 3.22881 22.4534 4.06519 22.4534Z" fill="#33CC99"/>
<path d="M10.7459 22.4534C11.5822 22.4534 12.2603 21.8108 12.2603 21.0181C12.2603 20.2254 11.5822 19.5828 10.7459 19.5828C9.90947 19.5828 9.23145 20.2254 9.23145 21.0181C9.23145 21.8108 9.90947 22.4534 10.7459 22.4534Z" fill="#33CC99"/>
<path d="M7.44996 25.3241C8.28634 25.3241 8.96437 24.6815 8.96437 23.8888C8.96437 23.0961 8.28634 22.4534 7.44996 22.4534C6.61357 22.4534 5.93555 23.0961 5.93555 23.8888C5.93555 24.6815 6.61357 25.3241 7.44996 25.3241Z" fill="#33CC99"/>
<path d="M11.0582 27.1393H8.38574V29.6723H11.0582V27.1393Z" fill="#33CC99"/>
</svg>
