<svg width="50" height="47" viewBox="0 0 50 47" fill="none" xmlns="http://www.w3.org/2000/svg">
<path d="M28.225 31.8206C25.874 31.8206 23.5757 31.1235 21.6209 29.8173C19.6661 28.5112 18.1425 26.6547 17.2428 24.4826C16.3431 22.3106 16.1076 19.9205 16.5663 17.6146C17.0249 15.3088 18.1571 13.1907 19.8195 11.5283C21.4819 9.86582 23.5999 8.73367 25.9058 8.275C28.2117 7.81632 30.6017 8.0517 32.7738 8.95139C34.9459 9.85107 36.8024 11.3747 38.1086 13.3295C39.4147 15.2843 40.1119 17.5825 40.1119 19.9335C40.1084 23.0851 38.8549 26.1065 36.6264 28.335C34.398 30.5635 31.3765 31.817 28.225 31.8206ZM28.225 8.65193C25.9937 8.65191 23.8125 9.31356 21.9572 10.5532C20.1019 11.7928 18.6559 13.5548 17.802 15.6163C16.9481 17.6777 16.7247 19.9461 17.16 22.1345C17.5953 24.323 18.6698 26.3332 20.2476 27.9109C21.8253 29.4887 23.8356 30.5632 26.024 30.9985C28.2124 31.4338 30.4808 31.2104 32.5423 30.3565C34.6037 29.5026 36.3657 28.0566 37.6053 26.2013C38.845 24.346 39.5066 22.1648 39.5066 19.9335C39.5032 16.9425 38.3135 14.075 36.1985 11.96C34.0836 9.84501 31.216 8.65532 28.225 8.65193Z" fill="#6C63FF"/>
<path d="M30.5287 28.2612C28.1777 28.2612 25.8794 27.5641 23.9246 26.2579C21.9698 24.9518 20.4462 23.0953 19.5465 20.9232C18.6468 18.7512 18.4113 16.3611 18.87 14.0552C19.3286 11.7494 20.4608 9.63131 22.1232 7.96887C23.7856 6.30643 25.9037 5.17429 28.2095 4.71561C30.5154 4.25693 32.9055 4.49231 35.0775 5.392C37.2496 6.29169 39.1061 7.81526 40.4123 9.77007C41.7185 11.7249 42.4156 14.0231 42.4156 16.3741C42.4121 19.5257 41.1586 22.5471 38.9301 24.7756C36.7017 27.0041 33.6802 28.2576 30.5287 28.2612ZM30.5287 5.09254C28.2974 5.09253 26.1162 5.75417 24.2609 6.99381C22.4056 8.23345 20.9596 9.99541 20.1057 12.0569C19.2518 14.1183 19.0284 16.3867 19.4637 18.5751C19.899 20.7636 20.9735 22.7738 22.5513 24.3516C24.1291 25.9293 26.1393 27.0038 28.3277 27.4391C30.5161 27.8744 32.7845 27.651 34.846 26.7971C36.9074 25.9432 38.6694 24.4972 39.909 22.6419C41.1487 20.7867 41.8103 18.6054 41.8103 16.3741C41.8069 13.3831 40.6172 10.5156 38.5022 8.40059C36.3873 6.28562 33.5197 5.09594 30.5287 5.09254Z" fill="#6C63FF"/>
<path fill-rule="evenodd" clip-rule="evenodd" d="M23.4171 14.378C23.5594 14.3567 23.6956 14.3056 23.8167 14.228C24.013 14.0981 24.1625 13.9087 24.2433 13.6876C24.3392 13.4424 24.3379 13.1698 24.2398 12.9254C24.1416 12.6811 23.9539 12.4834 23.7149 12.3727L15.1779 8.18482C15.2546 7.1676 15.1265 6.14535 14.8013 5.17847C14.4761 4.21159 13.9604 3.31971 13.2847 2.55556C12.4617 1.62821 11.4244 0.916271 10.2632 0.481834C9.10191 0.0473974 7.85201 -0.0963444 6.62247 0.0631435C5.39292 0.222631 4.22106 0.680503 3.20909 1.39683C2.19711 2.11316 1.37576 3.0662 0.816644 4.17282C0.257534 5.27944 -0.0223533 6.50605 0.00139448 7.74567C0.0251422 8.98529 0.351804 10.2003 0.952889 11.2847C1.55397 12.3691 2.41123 13.2899 3.44989 13.967C4.48856 14.644 5.6771 15.0567 6.91185 15.169C8.2274 15.2869 9.55101 15.0607 10.7528 14.5127C11.9545 13.9646 12.9931 13.1135 13.7666 12.0429L22.9912 14.3514C23.1297 14.3902 23.2749 14.3992 23.4171 14.378ZM11.0568 7.59424C11.0568 9.50625 9.50683 11.0562 7.59482 11.0562C5.68281 11.0562 4.13282 9.50625 4.13282 7.59424C4.13282 5.68224 5.68281 4.13225 7.59482 4.13225C9.50683 4.13225 11.0568 5.68224 11.0568 7.59424Z" fill="#6C63FF"/>
<path fill-rule="evenodd" clip-rule="evenodd" d="M40.9628 46.0525C42.8895 46.4238 44.8852 46.0355 46.5321 44.9689L46.5566 44.953C47.4263 44.3848 48.1704 43.6444 48.7428 42.7774C49.3152 41.9104 49.7037 40.9353 49.8845 39.9123C50.0653 38.8893 50.0345 37.8401 49.794 36.8295C49.5534 35.8188 49.1082 34.8682 48.4859 34.0364C47.6932 32.9799 46.6394 32.1477 45.428 31.6214C44.2166 31.0951 42.8892 30.8928 41.576 31.0343L37.1193 22.6347C36.9967 22.4036 36.7929 22.226 36.5471 22.1361C36.3013 22.0463 36.031 22.0506 35.7882 22.1483C35.5455 22.2459 35.3474 22.43 35.2323 22.665C35.1171 22.8999 35.093 23.1692 35.1646 23.4209L37.7649 32.5675C36.21 33.7644 35.1784 35.5162 34.8858 37.4564C34.5932 39.3967 35.0623 41.3748 36.195 42.977C37.3277 44.5792 39.0361 45.6813 40.9628 46.0525ZM45.8617 38.5962C45.8617 40.5082 44.3117 42.0581 42.3997 42.0581C40.4877 42.0581 38.9377 40.5082 38.9377 38.5962C38.9377 36.6841 40.4877 35.1342 42.3997 35.1342C44.3117 35.1342 45.8617 36.6841 45.8617 38.5962Z" fill="#6C63FF"/>
</svg>
