<svg width="40" height="29" viewBox="0 0 40 29" fill="none" xmlns="http://www.w3.org/2000/svg">
<g clip-path="url(#clip0_203_135)">
<path fill-rule="evenodd" clip-rule="evenodd" d="M0 0H39.4839V29H0V0ZM1.09677 1H5.48387V3H1.09677V1ZM38.3643 3.78339H1.14648V28.2078H38.3643V3.78339ZM6.58105 1H38.3875V3H6.58105V1Z" fill="#6C63FF"/>
<path d="M14.1881 18.2555L8.71217 14.7595C8.602 14.6923 8.46477 14.6704 8.32995 14.6985C8.19514 14.7265 8.07348 14.8023 7.99112 14.9096C7.90876 15.0168 7.87226 15.147 7.88946 15.2721C7.90665 15.3972 7.97617 15.5073 8.08309 15.5787L13.5591 19.0747C13.6692 19.1418 13.8065 19.1638 13.9413 19.1357C14.0761 19.1076 14.1977 19.0319 14.2801 18.9246C14.3625 18.8174 14.399 18.6872 14.3818 18.5621C14.3646 18.437 14.2951 18.3269 14.1881 18.2555Z" fill="#33CC99"/>
<path d="M13.5592 11.2595L8.08327 14.7555C7.97635 14.8269 7.90683 14.937 7.88964 15.0621C7.87244 15.1872 7.90894 15.3173 7.9913 15.4246C8.07366 15.5318 8.19531 15.6076 8.33013 15.6357C8.46494 15.6637 8.60218 15.6418 8.71235 15.5746L14.1883 12.0786C14.2952 12.0072 14.3648 11.8971 14.382 11.772C14.3991 11.6469 14.3626 11.5168 14.2803 11.4096C14.1979 11.3023 14.0763 11.2265 13.9415 11.1985C13.8066 11.1704 13.6694 11.1923 13.5592 11.2595Z" fill="#33CC99"/>
<path d="M26.2428 18.1066L31.8221 14.7492C31.9344 14.6848 32.075 14.6646 32.2135 14.693C32.3521 14.7215 32.4777 14.7963 32.5633 14.9014C32.649 15.0065 32.6878 15.1335 32.6715 15.2551C32.6552 15.3768 32.5851 15.4833 32.4762 15.552L26.8969 18.9094C26.7846 18.9738 26.644 18.994 26.5055 18.9656C26.3669 18.9371 26.2413 18.8623 26.1557 18.7572C26.07 18.6521 26.0312 18.5251 26.0475 18.4035C26.0638 18.2818 26.1339 18.1753 26.2428 18.1066Z" fill="#33CC99"/>
<path d="M26.9108 11.4084L32.4901 14.7658C32.599 14.8344 32.6691 14.941 32.6854 15.0626C32.7017 15.1843 32.6629 15.3113 32.5773 15.4164C32.4916 15.5215 32.3661 15.5963 32.2275 15.6247C32.0889 15.6532 31.9484 15.633 31.8361 15.5685L26.2567 12.2111C26.1478 12.1425 26.0777 12.0359 26.0614 11.9143C26.0451 11.7926 26.084 11.6656 26.1696 11.5605C26.2552 11.4554 26.3808 11.3806 26.5194 11.3522C26.658 11.3237 26.7985 11.3439 26.9108 11.4084Z" fill="#33CC99"/>
<path d="M20.2907 11.5245L21.6173 18.3844C21.6408 18.5207 21.6072 18.6566 21.5239 18.7629C21.4405 18.8692 21.3139 18.9375 21.1713 18.953C21.0287 18.9686 20.8815 18.9301 20.7613 18.846C20.6411 18.7619 20.5574 18.6388 20.5283 18.5031L19.2017 11.6431C19.1782 11.5069 19.2117 11.371 19.2951 11.2647C19.3785 11.1583 19.5051 11.0901 19.6477 11.0746C19.7903 11.059 19.9375 11.0974 20.0577 11.1815C20.1779 11.2657 20.2616 11.3888 20.2907 11.5245Z" fill="#33CC99"/>
</g>
<defs>
<clipPath id="clip0_203_135">
<rect width="39.4839" height="29" fill="white"/>
</clipPath>
</defs>
</svg>
